<?xml version="1.0" encoding="UTF-8"?>
<!DOCTYPE svg PUBLIC "-//W3C//DTD SVG 1.1//EN" "http://www.w3.org/Graphics/SVG/1.1/DTD/svg11.dtd">
<!-- Creator: CorelDRAW 2019 (64 Bit) -->
<svg xmlns="http://www.w3.org/2000/svg" xml:space="preserve" width="297mm" height="210mm" version="1.1" style="shape-rendering:geometricPrecision; text-rendering:geometricPrecision; image-rendering:optimizeQuality; fill-rule:evenodd; clip-rule:evenodd"
viewBox="0 0 29700 21000"
 xmlns:xlink="http://www.w3.org/1999/xlink"
 xmlns:xodm="http://www.corel.com/coreldraw/odm/2003">
 <defs>
  <style type="text/css">
   <![CDATA[
    .fil0 {fill:#FEFEFE}
    .fil1 {fill:#2B2A29;fill-rule:nonzero}
    .fil2 {fill:#A53A1D;fill-rule:nonzero}
    .fil3 {fill:#F2F2F2;fill-rule:nonzero}
   ]]>
  </style>
 </defs>
 <g id="Camada_x0020_1">
  <metadata id="CorelCorpID_0Corel-Layer"/>
  <g id="_2591158954656">
   <path class="fil0" d="M18614.31 14028.77l-50.85 52.8c-974.59,1012.28 -2307.84,1582.69 -3713.94,1582.69 -1414.15,0 -2754.52,-576.86 -3730.16,-1599.23l-50.8 -53.25 -12.97 1.36 -35.66 4.32c-226.41,27.39 -452.81,55.32 -678.82,85.95l-103.1 13.99 -27.92 4.15c-231.06,34.4 -461.95,70.03 -692.47,107.93l-342.54 56.36 0 -73.51c-87.02,64.89 -188.59,111.68 -305.99,134.31 -88.18,17.01 -176.28,34.45 -264.45,51.5l-350.73 67.93 0 -357.25c0,-408.95 0,-817.87 0,-1226.81 0,-409.05 0,-818.06 0,-1227.11l0 -358.65 351.84 69.52c94.22,18.63 188.45,37.25 282.73,55.61 105.25,20.49 201.28,62.04 286.6,122.07l0 -65.4 342.66 56.51c95.68,15.77 191.46,31.09 287.27,46.11 -75.03,-352.68 -112.72,-712.47 -112.72,-1073.54 0,-2843.83 2313.42,-5157.13 5157.23,-5157.13 2843.75,0 5157.13,2313.37 5157.13,5157.13 0,352.42 -35.78,703.75 -107.26,1048.42l144.92 -24.3c64.28,-10.78 128.51,-21.82 192.79,-32.59l66.43 -11.14 94.55 -17.66c227.6,-42.49 454.89,-86.79 681.96,-132.08l352.38 -70.3 0 359.31c0,173.29 0,346.62 0,519.92l0 262.41 -31.5 3.67 0 201.49c0,166.39 0,332.76 0,499.15l0 236.95 44.11 5.07 0 262.66c0,173.66 0,347.29 0,520.95l0 358.97 -352.11 -69.91c-231.32,-45.92 -462.79,-91.36 -694.67,-134.5l-95.42 -17.76 -65.78 -11.04c-51.72,-8.69 -103.41,-17.36 -155.08,-26.28l-123.59 -21.33 -305.43 -47.85c-50.34,-7.9 -100.71,-15.75 -151.12,-23.22l-122.31 -17.53c-79.72,-11.43 -159.43,-22.78 -239.15,-34.14l-43.77 -6.23 -313.14 -39.4c-37.23,-4.69 -74.5,-9.11 -111.75,-13.43l-57.4 -6.64z"/>
   <g>
    <path class="fil1" d="M14849.52 5950.82c-2512.43,0 -4556.31,2043.98 -4556.31,4556.31 0,449.5 65.73,883.91 187.6,1294.38 -51.91,-7.27 -103.85,-14.4 -155.79,-21.5l-143.87 -19.64 -31.36 -4.71c-106,-398.61 -162.79,-817.02 -162.79,-1248.53 0,-2681.16 2181.36,-4862.42 4862.52,-4862.42 2681.06,0 4862.42,2181.26 4862.42,4862.42 0,422.72 -54.31,832.99 -156.2,1224.25l-76.28 11.24 -148.86 21.69 0 150.42c0,2.92 0,5.87 0,8.79 -25.65,-24.01 -54.42,-45 -86.19,-62.49 -12.63,-6.96 -25.46,-13.19 -38.45,-18.65 129.74,-422.47 199.77,-870.82 199.77,-1335.25 0,-2512.33 -2043.96,-4556.31 -4556.21,-4556.31zm-4174.98 6379.94c70.57,160.93 150.14,317.05 238.12,467.67l0 83.58c0,108.1 0,216.22 0,324.32l-100.91 7.13c-47.58,-70.83 -93.29,-143.01 -137.21,-216.37l0 -301.81 0 -364.52zm1057.55 1495.96c815.6,766.37 1912.55,1236.65 3117.43,1236.65 1295.27,0 2466.07,-543.36 3296.4,-1414.08l20.97 90.54 27.95 120.95 123.46 12.88 32.85 3.5c-885.17,919.4 -2127.7,1492.39 -3501.63,1492.39 -1381.8,0 -2630.84,-579.42 -3516.95,-1508l127.06 -14.03 0 -155.79c0,-11.06 0,-22.1 0,-33.16 73.46,85.73 164.92,144.86 272.46,168.15z"/>
    <path class="fil2" d="M14849.52 6307.03c-2316.01,0 -4200.1,1884.19 -4200.1,4200.1 0,514.51 93.15,1007.62 263.24,1463.55l0 79.5 0 381.16c-93.1,-189.75 -172.87,-387.15 -238.12,-591.01l0 -11.38 -3.88 -0.55c-132.19,-417.14 -203.69,-860.97 -203.69,-1321.27 0,-2416.55 1965.9,-4382.55 4382.55,-4382.55 2416.45,0 4382.45,1966 4382.45,4382.55 0,453.08 -69.09,890.34 -197.33,1301.75 -24.11,-0.08 -48.39,1.52 -72.71,4.64 -41.96,5.38 -83.9,10.7 -125.88,15.94 138.37,-415.93 213.47,-860.51 213.47,-1322.33 0,-2315.91 -1884.19,-4200.1 -4200,-4200.1zm-2688.02 7424.73c7.17,5.99 14.23,12.03 21.43,17.97l0 34.84 39.86 -2.73c719.84,578.52 1633.46,925.31 2626.73,925.31 986.55,0 1894.62,-342.12 2612.21,-913.72l134.05 11.38c41.5,3.53 83.02,7.27 124.5,11.02 -769.55,668.62 -1773.72,1073.85 -2870.76,1073.85 -1095.69,0 -2098.72,-404.14 -2867.87,-1071.2 64.65,-17.75 124.8,-47.27 179.85,-86.72z"/>
    <path class="fil2" d="M14956.63 6649.11c0,59.24 -47.98,107.21 -107.11,107.21 -59.23,0 -107.21,-47.97 -107.21,-107.21 0,-59.16 47.98,-107.13 107.21,-107.13 59.13,0 107.11,47.97 107.11,107.13z"/>
    <path class="fil2" d="M14285.03 6689.17c10.31,58.29 -28.65,113.85 -86.84,124.06 -58.29,10.32 -113.85,-28.62 -124.17,-86.84 -10.31,-58.29 28.63,-113.92 86.92,-124.16 58.29,-10.29 113.85,28.65 124.09,86.94z"/>
    <path class="fil2" d="M13630.63 6845.12c20.29,55.63 -8.43,117.16 -63.99,137.35 -55.66,20.3 -117.11,-8.43 -137.38,-63.99 -20.2,-55.65 8.43,-117.18 64.09,-137.37 55.56,-20.27 117.08,8.45 137.28,64.01z"/>
    <path class="fil2" d="M13013.31 7112.44c29.57,51.21 12,116.74 -39.3,146.31 -51.22,29.67 -116.75,12.11 -146.32,-39.18 -29.57,-51.24 -12.01,-116.75 39.2,-146.34 51.22,-29.64 116.75,-12.01 146.42,39.21z"/>
    <path class="fil2" d="M12451.72 7482.9c37.99,45.32 32.12,112.91 -13.22,150.91 -45.34,38.02 -112.9,32.13 -151,-13.22 -38.02,-45.31 -32.13,-112.9 13.19,-150.9 45.34,-38.1 112.93,-32.13 151.03,13.21z"/>
    <path class="fil2" d="M11962.98 7945.21c45.34,38 51.21,105.59 13.22,150.9 -38.1,45.35 -105.69,51.24 -151.03,13.22 -45.32,-38 -51.21,-105.59 -13.19,-150.91 38.09,-45.34 105.66,-51.23 151,-13.21z"/>
    <path class="fil2" d="M11561.93 8485.32c51.22,29.64 68.78,95.11 39.21,146.39 -29.57,51.24 -95.1,68.78 -146.32,39.21 -51.3,-29.57 -68.87,-95.1 -39.3,-146.39 29.67,-51.24 95.2,-68.77 146.41,-39.21z"/>
    <path class="fil2" d="M11260.78 9086.97c55.65,20.19 84.28,81.72 64.08,137.28 -20.29,55.66 -81.72,84.28 -137.38,64.09 -55.56,-20.3 -84.28,-81.73 -63.99,-137.38 20.2,-55.56 81.73,-84.28 137.29,-63.99z"/>
    <path class="fil2" d="M11068.68 9731.66c58.29,10.29 97.26,65.85 86.94,124.14 -10.31,58.29 -65.87,97.15 -124.16,86.94 -58.22,-10.32 -97.16,-65.88 -86.85,-124.17 10.22,-58.29 65.78,-97.16 124.07,-86.91z"/>
    <path class="fil2" d="M10991.48 10399.92c59.16,0 107.13,47.98 107.13,107.21 0,59.16 -47.97,107.13 -107.13,107.13 -59.14,0 -107.11,-47.97 -107.11,-107.13 0,-59.23 47.97,-107.21 107.11,-107.21z"/>
    <path class="fil2" d="M11031.46 11071.55c58.29,-10.32 113.85,28.62 124.16,86.91 10.32,58.29 -28.65,113.85 -86.94,124.17 -58.29,10.22 -113.85,-28.72 -124.07,-86.92 -10.31,-58.29 28.63,-113.85 86.85,-124.16z"/>
    <path class="fil2" d="M13429.26 14095.8c20.27,-55.58 81.72,-84.28 137.38,-64.01 55.56,20.19 84.28,81.72 63.99,137.28 -20.2,55.65 -81.72,84.28 -137.28,64.08 -55.66,-20.26 -84.29,-81.72 -64.09,-137.35z"/>
    <path class="fil2" d="M14074.02 14287.87c10.32,-58.29 65.88,-97.16 124.17,-86.92 58.19,10.32 97.15,65.88 86.84,124.17 -10.24,58.29 -65.8,97.13 -124.09,86.91 -58.29,-10.31 -97.23,-65.87 -86.92,-124.16z"/>
    <path class="fil2" d="M14742.31 14365.07c0,-59.13 47.98,-107.11 107.21,-107.11 59.13,0 107.11,47.98 107.11,107.11 0,59.24 -47.98,107.21 -107.11,107.21 -59.23,0 -107.21,-47.97 -107.21,-107.21z"/>
    <path class="fil2" d="M15413.91 14325.12c-10.31,-58.29 28.65,-113.85 86.94,-124.17 58.19,-10.24 113.75,28.63 124.07,86.92 10.31,58.29 -28.63,113.85 -86.92,124.16 -58.29,10.22 -113.85,-28.62 -124.09,-86.91z"/>
    <path class="fil2" d="M16068.31 14169.07c-20.29,-55.56 8.43,-117.09 63.99,-137.28 55.66,-20.27 117.11,8.43 137.38,64.01 20.2,55.63 -8.43,117.09 -64.09,137.35 -55.56,20.2 -117.08,-8.43 -137.28,-64.08z"/>
    <path class="fil2" d="M18630.26 11282.63c-58.29,-10.32 -97.26,-65.88 -86.94,-124.17 10.31,-58.29 65.87,-97.23 124.16,-86.91 58.22,10.31 97.16,65.87 86.85,124.16 -10.22,58.2 -65.78,97.14 -124.07,86.92z"/>
    <path class="fil2" d="M18707.46 10614.26c-59.13,0 -107.13,-47.97 -107.13,-107.13 0,-59.23 48,-107.21 107.13,-107.21 59.14,0 107.11,47.98 107.11,107.21 0,59.16 -47.97,107.13 -107.11,107.13z"/>
    <path class="fil2" d="M18667.48 9942.74c-58.29,10.21 -113.85,-28.65 -124.16,-86.94 -10.32,-58.29 28.65,-113.85 86.94,-124.14 58.29,-10.25 113.85,28.62 124.07,86.91 10.31,58.29 -28.63,113.85 -86.85,124.17z"/>
    <path class="fil2" d="M18511.46 9288.34c-55.66,20.19 -117.09,-8.43 -137.38,-64.09 -20.2,-55.56 8.43,-117.09 64.08,-137.28 55.56,-20.29 117.09,8.43 137.29,63.99 20.29,55.65 -8.43,117.08 -63.99,137.38z"/>
    <path class="fil2" d="M18244.12 8670.92c-51.22,29.57 -116.75,12.03 -146.32,-39.21 -29.57,-51.28 -12.01,-116.75 39.21,-146.39 51.21,-29.56 116.74,-12.03 146.41,39.21 29.57,51.29 12,116.82 -39.3,146.39z"/>
    <path class="fil2" d="M17873.77 8109.33c-45.34,38.02 -112.93,32.13 -151.03,-13.22 -37.99,-45.31 -32.12,-112.9 13.22,-150.9 45.34,-38.02 112.91,-32.13 151,13.21 38.02,45.32 32.13,112.91 -13.19,150.91z"/>
    <path class="fil2" d="M17411.44 7620.59c-38.1,45.35 -105.66,51.24 -151,13.22 -45.34,-38 -51.21,-105.59 -13.22,-150.91 38.1,-45.34 105.69,-51.31 151.03,-13.21 45.32,38 51.21,105.59 13.19,150.9z"/>
    <path class="fil2" d="M16871.25 7219.57c-29.57,51.29 -95.1,68.85 -146.32,39.18 -51.3,-29.57 -68.87,-95.1 -39.3,-146.31 29.67,-51.22 95.2,-68.85 146.42,-39.21 51.21,29.59 68.77,95.1 39.2,146.34z"/>
    <path class="fil2" d="M16269.68 6918.48c-20.27,55.56 -81.72,84.29 -137.38,63.99 -55.56,-20.19 -84.28,-81.72 -63.99,-137.35 20.2,-55.56 81.72,-84.28 137.28,-64.01 55.66,20.19 84.29,81.72 64.09,137.37z"/>
    <path class="fil2" d="M15624.92 6726.39c-10.32,58.22 -65.88,97.16 -124.07,86.84 -58.29,-10.21 -97.25,-65.77 -86.94,-124.06 10.24,-58.29 65.8,-97.23 124.09,-86.94 58.29,10.24 97.23,65.87 86.92,124.16z"/>
    <path class="fil1" d="M14210.19 10302.69c22.25,18.68 25.15,51.99 6.5,74.24l-101.68 121.17c-10.14,12.03 -23.6,21.3 -39.03,25.07 -49.5,13.79 -173.16,63.05 -257.03,235.79 -107.71,220.29 -423.61,489.58 -423.61,489.58 0,0 -140.01,110.88 -148.46,286.43 -2.47,58.96 -21.89,116.58 -63.39,158.32 -107.64,109.09 -231.37,65.03 -335.94,-10.46 -39.45,-28.05 -73.71,-63.85 -96.05,-106.97 -68.34,-133.97 16.28,-237.84 108.49,-342.39l982.32 -1170.68c18.67,-22.22 51.99,-25.12 74.23,-6.47l-9.8 -8.26c12.61,-11.93 25.82,-25.32 39.2,-39.79 323.24,-334.56 1031.22,-1294.91 1293.03,-1891.26 23.43,-52.32 42.44,-107.21 60.68,-161.92 121.77,-362.78 386.12,-243.21 386.12,-243.21 0,0 536.27,266.64 1113.3,750.86 0,0 -625.85,1339.82 -1889.81,2288.3l-571.67 -442.38c0,0 -73.7,-55.46 -127.4,-5.97z"/>
    <path class="fil3" d="M13028.21 11495.33c-24.11,28.81 -67.06,32.56 -95.87,8.35 -28.8,-24.2 -32.54,-67.05 -8.44,-95.87 24.21,-28.89 67.16,-32.64 95.95,-8.43 28.82,24.1 32.57,67.15 8.36,95.95z"/>
    <path class="fil3" d="M13481.82 10954.7c-24.1,28.82 -67.05,32.57 -95.85,8.36 -28.82,-24.11 -32.56,-67.06 -8.45,-95.88 24.2,-28.79 67.15,-32.63 95.97,-8.43 28.79,24.21 32.54,67.16 8.33,95.95z"/>
    <path class="fil3" d="M13935.46 10414.08c-24.13,28.79 -67.08,32.56 -95.88,8.43 -28.79,-24.21 -32.56,-67.16 -8.43,-95.95 24.21,-28.79 67.16,-32.56 95.95,-8.43 28.82,24.2 32.56,67.15 8.36,95.95z"/>
    <path class="fil3" d="M16659.98 8438.97c-315.05,717.11 -811.27,1365.28 -1398.69,1880.68 -132.86,116.58 -274.92,222.1 -420.73,321.72 257.53,-249.03 515.4,-494.03 751.8,-763.9 276.37,-315.59 533.06,-646.48 771.85,-991.36 101.74,-147.02 199.21,-296.74 295.77,-447.14z"/>
    <path class="fil3" d="M14157.63 10361.93c-33.58,49.15 -61.96,97.39 -117.79,120.58 -77.04,31.96 -143.25,87.09 -193.01,153.57 -44.5,59.47 -71.41,128.85 -111.39,191.05 -48.74,75.85 -108.82,145.04 -170.78,210.33 -113.52,119.65 -264.93,215.33 -331.07,371.96 -30.34,71.6 -19.08,163.81 -61.36,228.74 -34.01,52.16 -97.56,77.38 -155.78,50.71 67.08,8.26 128.44,-28.05 148.87,-93.75 10.59,-33.92 7.69,-70.57 13.32,-105.5 6.54,-40.39 18.64,-79.93 35.26,-117.25 68.95,-154.84 221.49,-255.48 335.18,-375.9 62.97,-66.82 124.76,-136.78 173.75,-214.85 37.76,-60.08 67.23,-123.05 114.46,-176.9 53.17,-60.68 120.59,-110.1 196.68,-137.81 54.04,-19.76 83,-65.2 123.66,-104.98z"/>
    <path class="fil3" d="M15684.75 8062.46c-37.51,44.74 -104.23,50.54 -148.87,13.05 -44.76,-37.52 -50.54,-104.24 -13.05,-148.88 37.49,-44.74 104.14,-50.63 148.88,-13.04 44.74,37.49 50.54,104.14 13.04,148.87z"/>
    <path class="fil3" d="M14101.9 10211.77l-195.16 -163.71c12.61,-11.93 25.82,-25.32 39.2,-39.79l155.96 203.5z"/>
    <path class="fil3" d="M16643.02 11832.79c-56.14,0 -110.27,-16.42 -161.05,-48.72 -120.66,-77.06 -193.71,-198.74 -217.05,-361.5 -12.7,-82.76 -41.26,-122.04 -86.07,-161.68 -27.61,-23.94 -58.21,-45.08 -90.25,-62.45 -259.24,-141.65 -490.11,-482.26 -601.06,-645.8 -68.07,-100.47 -142.47,-184.14 -221.3,-272.87 -27.03,-30.41 -54.3,-61.02 -81.65,-92.88 -19.68,-22.49 -30.41,-51.31 -30.24,-81.56l-235.82 197.87 -47.54 -56.57c-1745.72,-2080.46 -1711.87,-2859.61 -1709.58,-2891.73l7.76 -109.51 98.51 48.49c75,36.81 153.99,85.22 234.7,143.85 139.58,102.08 269.81,224.8 387.4,364.91l1635.18 1948.78c10.48,-2.9 21.47,-4.35 32.47,-4.35 37.82,0 73.29,17.05 97.23,46.62 29.56,36.38 77.47,96.46 137.37,171.8 173.93,218.5 464.97,584.18 701.94,859.68 89.14,103.37 170.02,196.01 257.13,282.42l21.98 21.81c67.15,65.97 136.6,134.14 174.87,232.32 47.2,123.39 24.78,257.43 -58.29,350.34 -69.55,77.78 -157.14,120.73 -246.64,120.73l0 0z"/>
    <path class="fil1" d="M16338.12 11412.15c17.56,122.89 69.88,236.93 183.63,309.52 109.36,69.79 227.63,36.48 312.86,-58.89 67.66,-75.66 80.36,-180.47 44.47,-274.23 -36.38,-93.39 -110.61,-159.36 -180.14,-228.47 -91.7,-91.19 -176.49,-188.76 -260.94,-286.76 -317.53,-368.92 -722.4,-887.73 -840.86,-1033.2 -18.07,-22.39 -50.54,-25.63 -72.62,-7.15l-16.18 13.55 -1675.14 -1996.42c-110.63,-131.75 -235.3,-251.05 -374.11,-352.56 -68.6,-49.76 -145.06,-98.58 -223.95,-137.35 0,0 -54.14,757.5 1692.43,2838.97l267 -224.05 66.38 79.08 -14.49 12.11c-21.65,18.24 -24.54,51.04 -5.87,72.35 107.95,125.27 213.54,232.99 308.14,372.42 130.81,193.1 342.32,495.18 575.07,622.34 37.22,20.2 72.08,44.47 103.97,72.09 61.77,54.64 95.51,110.44 110.35,206.65z"/>
    <path class="fil3" d="M16587.73 11508.13c27.17,32.46 75.58,36.64 108.05,9.44 32.46,-27.27 36.64,-75.68 9.47,-108.05 -27.28,-32.46 -75.59,-36.74 -108.08,-9.47 -32.47,27.2 -36.72,75.59 -9.44,108.08z"/>
    <path class="fil3" d="M16045.89 10862.42c27.28,32.47 75.69,36.72 108.06,9.45 32.49,-27.18 36.74,-75.59 9.47,-108.05 -27.18,-32.4 -75.59,-36.65 -108.06,-9.47 -32.39,27.27 -36.64,75.68 -9.47,108.07z"/>
    <path class="fil3" d="M15504.16 10216.79c27.2,32.47 75.59,36.65 108.05,9.47 32.47,-27.27 36.65,-75.58 9.47,-108.05 -27.27,-32.49 -75.58,-36.74 -108.05,-9.47 -32.47,27.18 -36.74,75.59 -9.47,108.05z"/>
    <path class="fil3" d="M13346.6 7490.66c69.61,372.39 243.13,727.59 435.88,1050.9 222.6,373.44 469.57,732.28 747.98,1066.51 134.99,162.09 275.26,318.82 421.82,470.43 -458.9,-667.79 -966.38,-1299.17 -1355.23,-2013.06 -99.96,-183.47 -187.48,-375.37 -250.45,-574.78z"/>
    <path class="fil3" d="M15362.1 10192.42c100.05,125.37 189.96,254.56 280.45,386.82 104.48,152.55 219.2,305.07 362.96,423.03 141.38,115.97 324.25,172.31 371.98,369.49 22.66,93.49 34.59,181.61 105.25,254.3 49.26,50.63 124.75,95.44 194.9,57.01 -75.86,11.26 -138.06,-34.08 -182.63,-91.26 -53.26,-68.34 -63.14,-146.66 -80.87,-228.4 -20.46,-94.07 -71,-170.93 -143.86,-233.33 -68,-58.29 -150.25,-95.85 -219.94,-152.11 -273.74,-220.8 -439.14,-540.8 -688.24,-785.55z"/>
    <polygon class="fil3" points="15313.61,10009.96 15508.34,9846.52 15471.96,9803.23 "/>
    <path class="fil2" d="M8548.62 14108.82c0,-408.68 0,-818.13 0,-1226.81 0,-408.68 0,-818.16 0,-1227.11 94.51,18.68 189.05,37.35 283.53,55.76 93.24,18.14 173.4,62.88 241.95,132.04 68.78,69.4 122.06,156.8 161.29,263.5 38.9,105.75 66.77,219.87 85.71,343.19 18.84,122.54 27.71,257.19 27.71,404.74 0,164.1 -12.71,313.75 -34.01,448.13 -21.53,135.66 -56.02,258.01 -99.55,367.37 -88.78,223.04 -223.09,353.12 -401.99,387.64 -88.22,17.01 -176.44,34.47 -264.64,51.55zm281.02 -1913.22c-27.71,-3.19 -55.47,-6.31 -83.17,-9.71 0,232.22 0,464.43 0,696.12 0,231.95 0,464.16 0,695.85 27.7,-3.16 55.46,-6.28 83.17,-9.47 104.6,-12.05 182.33,-78.27 234.39,-198.03 51.26,-117.98 79.38,-290.08 79.38,-517.03 0,-207.74 -28.07,-365.39 -79.38,-473.9 -52.01,-110.01 -129.79,-171.8 -234.39,-183.83zm640.15 1743.09c0,-351.89 0,-704.55 0,-1056.68 0,-351.89 0,-704.55 0,-1056.68 228.11,37.61 456.19,72.59 685.53,107.04 0,131.21 0,262.46 0,393.41 -162.55,-14.18 -325.12,-28.65 -486.41,-43.39 0,126.75 0,253.53 0,380.28 151.22,5 302.44,10 454.91,14.73 0,127.28 0,254.3 0,381.6 -152.47,4.47 -303.69,8.67 -454.91,13.14 0,136.75 0,273.24 0,409.72 165.08,-15.51 331.43,-29.98 497.77,-44.69 0,131.22 0,261.93 0,392.88 -233.14,34.72 -465.02,70.49 -696.89,108.64zm831.73 -127.31c0,-309.52 0,-619.59 0,-929.37 0,-309.54 0,-619.59 0,-929.67 65.51,8.94 132.3,18.14 199.1,27.61 0,238.28 0,477.07 0,715.33 0,238.28 0,476.8 0,715.05 161.29,-11.83 322.61,-23.4 483.9,-34.71 0,116.51 0,233.02 0,349.26 -228.08,27.61 -456.17,55.75 -683,86.5zm785.06 -97.81c0,-276.93 0,-554.39 0,-831.56 0,-276.93 0,-554.37 0,-831.83 65.54,7.1 132.33,14.73 199.12,22.1 0,269.8 0,539.9 0,809.73 0,269.83 0,539.9 0,809.72 -66.79,7.37 -133.58,14.98 -199.12,21.84zm1049.72 -582.53c39.09,67.85 78.15,135.18 117.21,201.97 -39.06,97.06 -93.58,174 -160.03,231.18 -67.11,57.73 -141.18,90.85 -221.81,98.1 -138.61,12.44 -249.95,-50.54 -332.68,-191.47 -41.99,-71.52 -74.38,-156.99 -94.5,-255.09 -20.17,-98.34 -30.25,-210.11 -30.25,-333.99 0,-115.97 10.03,-222.5 31.5,-319.28 21.36,-96.24 53.58,-182.59 97.04,-257.46 86.31,-148.66 197.84,-214.72 335.19,-202.74 79.38,6.93 152.12,39.62 216.76,95.71 63.87,55.41 112.16,124.93 144.92,209.6 -45.37,64.43 -89.48,129.65 -133.59,195.14 -26.45,-54.18 -59.23,-96.51 -98.29,-127.28 -39.06,-30.75 -78.15,-47.57 -115.93,-49.45 -81.91,-4.13 -147.16,34.4 -196.59,116.24 -50.12,83 -75.61,196.2 -75.61,339.52 0,139.12 25.44,251.54 76.87,336.62 50.63,83.75 114.67,123.66 192.82,119.65 100.78,-5.17 183.97,-74.69 246.97,-206.97zm220.55 467.33c0,-238.52 0,-477.58 0,-716.36 0,-238.79 0,-477.58 0,-716.63 65.52,4.71 131.05,9.44 197.85,13.41 0,234.31 0,468.9 0,703.22 0,234.32 0,468.9 0,703.22 -66.8,3.94 -132.33,8.67 -197.85,13.14zm282.27 -18.41c64.26,-235.11 129.48,-467.93 194.08,-697.95 63.91,-227.56 131.05,-453.13 196.58,-676.68 49.14,2.11 99.55,4.74 149.94,7.11 64.28,225.11 129.6,448.46 194.08,669.57 64.03,219.63 131.07,437.86 196.58,654.3 -68.05,2.37 -136.1,4.74 -204.15,7.37 -23.93,-81.26 -47.87,-162.53 -71.81,-244.32 -126.03,3.67 -252.05,7.63 -378.05,11.57 -23.97,85.2 -47.9,170.93 -71.84,257.2 -69.31,3.93 -137.36,7.89 -205.41,11.83zm466.27 -929.64c-20.17,66.79 -40.36,133.85 -59.23,201.18 -18.91,67.56 -39.06,135.18 -57.98,203.01 76.87,-1.04 155.02,-1.84 233.14,-2.88 -20.17,-66.55 -40.37,-133.07 -59.23,-199.87 -18.92,-67.03 -37.81,-134.11 -56.7,-201.44zm952.69 602.49c22.9,-22.32 34.01,-51.02 34.01,-84.93 0,-33.94 -12.3,-63.17 -36.55,-86.53 -24.88,-23.97 -55.49,-43.05 -91.99,-58.12 -36.57,-15.13 -77.03,-31.75 -120.97,-50.49 -42.98,-18.31 -83.32,-40.58 -120.98,-66.82 -36.67,-25.53 -67.32,-64.98 -91.99,-118.08 -24.44,-52.61 -36.55,-116.74 -36.55,-191.44 0,-108.36 31.94,-200.57 97.04,-277.19 64.69,-76.14 147.45,-113.51 249.51,-110.98 151.2,3.75 268.43,84.16 351.6,241.95 -45.36,60.49 -89.47,120.72 -133.58,181.47 -64.28,-102.84 -139.89,-155.23 -225.58,-156.49 -89.45,-1.33 -134.84,37.35 -134.84,116.24 0,29.98 12.51,55.66 37.81,75.73 26.35,20.92 56.84,38.2 93.26,53.39 35.37,14.76 75.54,31.81 119.7,49.71 44.01,17.83 84.33,39.91 120.98,66 36.4,25.94 67.32,65.51 92.01,118.87 24.44,52.88 36.52,116.25 36.52,189.1 0,115.45 -32.32,212.34 -97.01,290.07 -65.08,78.2 -146.19,117.89 -243.23,120.45 -100.78,2.68 -187.75,-24.74 -258.33,-82.33 -70.54,-57.59 -122.23,-132.52 -156.25,-225.35 47.88,-59.45 95.76,-118.61 144.92,-177.53 30.24,69.16 67.81,123.39 113.41,161.99 46.36,39.21 97.04,57.64 151.22,56.82 47.86,-0.72 82.18,-12.39 105.86,-35.51zm662.83 263.77c0,-211.45 0,-423.13 0,-634.31 0,-211.44 0,-423.15 0,-634.85 94.52,0 189.07,-0.54 284.8,-1.31 93.27,-0.77 173.76,15.32 241.96,47.32 67.88,31.89 122.37,76.72 161.31,135.18 39.19,58.82 67.38,124 85.69,196.2 18.21,71.89 27.73,152.26 27.73,240.36 0,97.83 -12.59,186.75 -34.04,265.87 -21.38,78.89 -55.44,148.87 -99.55,208.83 -88.19,119.91 -223.08,178.64 -401.99,177.24 -89.47,-0.7 -177.69,-0.8 -265.91,-0.53zm282.29 -1007.24c-27.73,0.1 -55.44,0.54 -83.17,0.27 0,124.14 0,248.26 0,372.13 0,123.88 0,247.99 0,371.87 27.73,0.26 55.46,0.17 83.17,0.26 104.6,0.39 182.67,-31.64 234.39,-96.26 51.6,-64.47 79.38,-162.26 79.38,-292.44 0,-119.14 -27.78,-208.23 -79.38,-267.46 -51.72,-59.35 -129.81,-88.78 -234.39,-88.37zm521.71 1014.87c64.26,-213.28 129.96,-427.33 194.07,-642.47 64.41,-216.13 129.8,-434.19 195.31,-653.26 50.41,-1.31 100.83,-2.64 151.22,-4.47 64.28,217.24 130.06,436.77 194.07,657.73 64.5,222.68 129.8,447.6 195.33,674.28 -68.05,-3.4 -136.09,-6.04 -204.14,-8.94 -23.94,-83.36 -47.88,-165.93 -71.85,-248.78 -126,-3.41 -252.02,-5.78 -378.04,-8.41 -23.94,79.96 -47.88,159.63 -71.82,239.32 -68.05,-1.84 -136.1,-3.67 -204.15,-5zm464.99 -868.11c-20.15,65.48 -40.32,131 -59.21,196.19 -18.89,65.2 -37.8,130.16 -56.72,195.14 76.87,0.51 153.73,1.04 231.88,1.84 -20.17,-65.76 -40.32,-131.54 -59.23,-197.24 -18.87,-65.49 -37.81,-130.71 -56.72,-195.93zm1526.06 477.84c39.09,71.52 78.15,143.32 118.47,216.17 -40.32,96 -93.22,168.64 -161.29,216.98 -66.75,47.37 -139.87,67.25 -220.53,61.26 -138.59,-10.29 -250.5,-84.09 -333.96,-221.69 -41.26,-68.02 -74.29,-145.98 -94.5,-233.28 -20.1,-86.77 -30.25,-184.34 -30.25,-291.9 0,-100.74 10.17,-193.81 31.5,-279.04 21.5,-85.97 55.05,-163.85 98.29,-235.88 86.53,-144.12 197.9,-221.74 333.94,-231.96 80.69,-6.06 152.46,13.46 216.76,59.69 65.49,47.11 113.42,112.57 146.17,196.2 -45.36,71 -90.73,140.96 -134.84,210.12 -25.19,-52.86 -57.78,-92.86 -97.01,-119.92 -38.89,-26.83 -78.15,-38.96 -117.21,-37.08 -80.63,3.89 -146.41,44.84 -196.59,124.65 -49.35,78.49 -74.35,183.04 -74.35,313.22 0,126.5 25,229.99 75.61,310.58 51.43,81.91 115.98,124.33 192.82,127.81 102.06,4.64 183.97,-56.79 246.97,-185.93zm94.53 497.57c64.26,-246.15 130.25,-495.88 194.07,-749.77 64.69,-257.34 129.8,-519.12 195.33,-784.48 50.39,-5.27 100.81,-10.53 151.22,-15.51 64.26,262.19 130.3,529.03 194.05,799.99 64.77,275.22 129.8,556.21 195.33,841.81 -68.05,-7.88 -136.1,-15.78 -204.15,-22.88 -23.93,-103.61 -47.87,-206.44 -71.81,-308.74 -126.03,-8.14 -252.05,-16.04 -378.08,-23.41 -23.94,94.16 -47.87,187.77 -71.81,281.13 -68.05,-6.04 -136.1,-12.36 -204.15,-18.14zm465.01 -1022.5c-20.17,79.43 -40.24,158.64 -59.23,237.49 -18.79,78.12 -37.8,155.95 -56.72,233.78 76.87,1.86 153.76,3.97 231.88,5.8 -20.17,-80.46 -40.27,-160.71 -59.23,-240.38 -18.82,-79.14 -37.81,-158.03 -56.7,-236.69zm744.75 1147.42c-66.79,-8.41 -132.31,-15.78 -197.84,-23.41 0,-283.77 0,-567.51 0,-851.28 0,-283.5 0,-567.53 0,-851.27 119.72,-13.94 240.72,-28.92 361.67,-44.45 69.3,-8.89 127.28,0.29 176.41,27.34 49.14,27.08 87.59,68.63 113.42,125.18 25.8,56.53 43.48,119 55.44,186.2 11.96,67.16 17.66,143.06 17.66,227.75 0,122.28 -14.45,234.29 -46.63,334.52 -32.08,99.88 -74.35,170.4 -128.53,212.74 41.57,119.14 83.46,239.52 124.74,361.6 41.86,123.78 83.17,248.79 124.77,375.54 -80.66,-11.57 -160.06,-22.88 -239.44,-34.18 -36.55,-108.87 -72.88,-216.81 -109.65,-323.72 -36.28,-105.54 -73.07,-210.41 -109.62,-314.01 -47.88,-2.1 -95.78,-3.94 -142.4,-5.8 0,99.67 0,199.1 0,298.77 0,99.4 0,198.81 0,298.48zm160.04 -1399.08c-54.19,4.08 -107.11,8.14 -160.04,12.1 0,142.53 0,285.08 0,427.33 55.44,-0.77 112.18,-1.54 168.85,-2.1 47.91,-0.46 85.83,-20.97 112.16,-61.26 26.57,-40.68 39.06,-97.83 39.06,-170.96 0,-71.52 -10.77,-125.3 -34.01,-159.89 -23.38,-34.81 -65.56,-49.78 -126.02,-45.22zm1305.54 1616.82c-51.68,-8.67 -103.35,-17.34 -153.74,-26.04 -73.09,-221.42 -145.47,-438.13 -218.01,-649.04 -71.09,-206.68 -143.66,-408.68 -215.5,-606.18 0,197.5 0,395.01 0,592.51 0,197.51 0,395.27 0,592.78 -65.51,-10.27 -129.79,-20.27 -194.05,-29.47 0,-322.15 0,-644.84 0,-966.99 0,-322.15 0,-644.57 0,-967.01 50.39,-7.34 102.06,-14.98 153.73,-23.14 71.84,186.73 145.69,377.93 216.76,573.84 72.59,200.11 144.91,405.27 218.01,614.59 0,-209.58 0,-419.46 0,-629.06 0,-209.58 0,-419.46 0,-629.06 64.26,-10.78 128.54,-21.82 192.8,-32.59 0,364.23 0,728.46 0,1092.43 0,363.97 0,728.47 0,1092.43zm166.34 29.71c0,-373.94 0,-748.17 0,-1122.14 0,-373.7 0,-748.2 0,-1122.17 228.08,-42.58 456.17,-87.03 685.54,-132.78 0,173.56 0,346.59 0,519.92 -162.58,18.91 -325.13,38.12 -486.44,55.99 0,143.61 0,287.2 0,430.78 151.22,-6.3 302.44,-12.89 454.94,-19.2 0,166.46 0,332.95 0,499.15 -152.5,-5.54 -303.72,-11.31 -454.94,-16.57 0,154.65 0,309.27 0,463.63 166.34,18.94 332.68,38.41 499.05,57.62 0,173.83 0,347.39 0,520.95 -233.14,-46.28 -466.27,-92.03 -698.15,-135.18z"/>
   </g>
  </g>
 </g>
</svg>
